<?xml version="1.0" standalone="no"?>
<!DOCTYPE svg PUBLIC "-//W3C//DTD SVG 20010904//EN"
 "http://www.w3.org/TR/2001/REC-SVG-20010904/DTD/svg10.dtd">
<svg version="1.0" xmlns="http://www.w3.org/2000/svg"
 width="512.000000pt" height="512.000000pt" viewBox="0 0 512.000000 512.000000"
 preserveAspectRatio="xMidYMid meet">

<g transform="translate(0.000000,512.000000) scale(0.100000,-0.100000)"
 stroke="none">
<path d="M1680 4961 l0 -79 198 -4 c216 -3 229 -6 291 -69 52 -52 66 -86 66
-169 0 -83 -12 -114 -66 -168 -63 -64 -74 -67 -291 -70 l-198 -4 0 -79 0 -79
178 0 c244 0 325 23 423 121 l39 39 800 0 800 0 39 -39 c98 -98 179 -121 423
-121 l178 0 0 79 0 79 -197 4 c-217 3 -227 6 -291 69 -54 53 -67 85 -67 169 0
84 13 116 67 169 64 63 74 66 291 69 l197 4 0 79 0 79 -178 0 c-201 0 -264
-11 -351 -63 -29 -18 -65 -47 -80 -64 l-26 -33 -805 0 -805 0 -26 33 c-15 17
-51 46 -80 64 -87 52 -150 63 -351 63 l-178 0 0 -79z m2165 -321 l0 -80 -725
0 -725 0 0 80 0 80 725 0 725 0 0 -80z"/>
<path d="M1885 4070 c-118 -24 -244 -96 -319 -183 -54 -61 -65 -82 -305 -597
l-188 -405 -329 -5 c-296 -4 -333 -7 -364 -24 -49 -26 -88 -64 -113 -111 -22
-40 -22 -47 -25 -642 -3 -595 -3 -602 -23 -608 -33 -11 -88 -65 -112 -109 -20
-37 -22 -56 -22 -186 0 -159 10 -194 72 -251 63 -60 82 -64 295 -67 l198 -4 0
-27 c0 -53 40 -187 84 -276 110 -228 318 -398 571 -466 114 -31 316 -31 430 0
252 68 457 234 570 464 45 91 85 223 85 279 l0 28 210 0 210 0 0 -28 c0 -54
40 -187 84 -277 110 -228 318 -398 571 -466 114 -31 316 -31 430 0 252 68 457
234 570 464 44 90 85 223 85 278 l0 27 158 4 c172 4 207 13 263 75 58 61 64
86 64 243 0 130 -2 149 -22 186 -24 44 -79 98 -112 109 -20 6 -20 13 -23 608
-3 565 -4 604 -22 637 -47 88 -115 131 -223 138 l-72 5 -3 371 c-4 350 -5 375
-26 437 -55 165 -195 305 -361 362 l-66 22 -1090 2 c-599 0 -1108 -3 -1130 -7z
m2236 -170 c119 -37 222 -140 259 -259 19 -59 20 -92 20 -492 l0 -429 135 0
c131 0 137 -1 160 -25 l25 -24 0 -576 0 -575 -280 0 -280 0 -2 993 -3 992 -22
40 c-25 47 -64 85 -113 111 -33 18 -81 19 -1015 22 -704 2 -995 0 -1033 -8
-40 -9 -64 -22 -102 -58 -49 -46 -53 -55 -200 -423 l-150 -377 0 -646 0 -646
-560 0 -560 0 0 574 c0 550 1 575 19 597 l19 24 367 5 367 5 227 485 c125 267
234 499 243 516 40 73 149 156 237 180 35 10 301 13 1112 13 1037 1 1069 0
1130 -19z m-1321 -700 l0 -320 -541 0 c-511 0 -541 1 -535 18 74 199 236 583
253 600 l22 22 401 0 400 0 0 -320z m1175 295 l25 -24 0 -296 0 -295 -360 0
-360 0 0 -80 0 -80 360 0 360 0 0 -600 0 -600 -520 0 -520 0 0 600 0 600 80 0
80 0 0 80 0 80 -80 0 -80 0 0 320 0 320 495 0 496 0 24 -25z m-1175 -1375 l0
-600 -560 0 -560 0 0 600 0 600 560 0 560 0 0 -600z m2055 -785 c24 -23 25
-31 25 -135 0 -104 -1 -112 -25 -135 l-24 -25 -2271 0 -2271 0 -24 25 c-24 23
-25 31 -25 135 0 104 1 112 25 135 l24 25 2271 0 2271 0 24 -25z m-2626 -502
c-14 -73 -38 -141 -77 -218 -50 -96 -190 -237 -287 -287 -218 -112 -447 -116
-664 -12 -78 38 -108 60 -181 132 -116 116 -182 236 -208 383 l-9 49 717 0
717 0 -8 -47z m2160 0 c-28 -152 -88 -263 -204 -379 -78 -78 -104 -98 -185
-137 -213 -103 -427 -103 -639 0 -78 37 -108 59 -181 131 -116 116 -182 236
-208 383 l-9 49 717 0 717 0 -8 -47z"/>
<path d="M3440 2480 l0 -80 200 0 200 0 0 80 0 80 -200 0 -200 0 0 -80z"/>
<path d="M2240 2480 l0 -80 200 0 200 0 0 80 0 80 -200 0 -200 0 0 -80z"/>
</g>
</svg>
