<?xml version="1.0" standalone="no"?>
<!DOCTYPE svg PUBLIC "-//W3C//DTD SVG 20010904//EN"
 "http://www.w3.org/TR/2001/REC-SVG-20010904/DTD/svg10.dtd">
<svg version="1.0" xmlns="http://www.w3.org/2000/svg"
 width="880.000000pt" height="731.000000pt" viewBox="0 0 880.000000 731.000000"
 preserveAspectRatio="xMidYMid meet">

<g transform="translate(0.000000,731.000000) scale(0.100000,-0.100000)"
 stroke="none">
<path d="M2076 6885 c-59 -21 -108 -65 -138 -125 l-28 -54 0 -277 0 -278 -362
-3 -363 -3 -57 -27 c-79 -37 -142 -98 -180 -175 -29 -59 -32 -76 -36 -178 l-4
-113 -112 -3 c-102 -4 -117 -7 -177 -36 -79 -39 -140 -102 -177 -181 l-27 -57
0 -470 0 -470 32 -67 c70 -148 197 -218 394 -218 l69 0 0 -1508 0 -1508 -35
-13 c-58 -21 -148 -112 -181 -183 -25 -55 -29 -74 -29 -153 1 -70 6 -103 24
-149 31 -79 118 -165 197 -197 l59 -24 3465 0 3465 0 55 26 c82 39 144 99 182
177 30 61 33 74 33 162 0 86 -3 101 -31 160 -37 77 -97 141 -164 172 l-49 23
-1 1508 0 1507 78 0 c190 1 315 72 386 220 l31 65 0 470 0 470 -27 57 c-37 79
-98 142 -177 181 -60 29 -75 32 -177 36 l-112 3 -4 112 c-3 93 -8 120 -30 168
-36 79 -98 142 -177 181 l-66 32 -362 3 -363 3 0 278 0 279 -28 53 c-31 60
-93 113 -150 129 -53 14 -599 13 -643 -2 -61 -20 -114 -64 -144 -120 l-30 -53
-3 -282 -3 -283 -1494 0 -1494 0 -3 283 c-3 270 -4 284 -25 324 -32 59 -87
109 -141 127 -63 22 -606 23 -666 1z m584 -485 l0 -250 -250 0 -250 0 0 250 0
250 250 0 250 0 0 -250z m3990 0 l0 -250 -250 0 -250 0 0 250 0 250 250 0 250
0 0 -250z m940 -515 c45 -23 60 -62 60 -155 l0 -80 -3245 0 -3245 0 0 80 c0
91 15 131 58 154 24 13 411 15 3185 16 2804 0 3161 -2 3187 -15z m507 -505
c52 -31 54 -53 51 -501 -3 -390 -4 -408 -23 -429 -47 -53 192 -50 -3717 -49
-2788 0 -3641 3 -3668 12 -19 7 -44 27 -57 46 l-23 34 0 409 c0 446 1 451 58
482 24 13 469 15 3687 16 3610 0 3660 0 3692 -20z m-447 -2725 l0 -1495 -3245
0 -3245 0 0 1495 0 1495 3245 0 3245 0 0 -1495z m185 -1761 c84 -40 85 -184 1
-219 -31 -13 -472 -15 -3432 -15 -3732 0 -3439 -5 -3477 59 -34 59 -11 147 46
175 29 14 365 16 3430 16 3075 0 3402 -2 3432 -16z"/>
<path d="M1214 5131 c-50 -30 -56 -59 -52 -245 l3 -166 30 -30 c57 -57 153
-46 195 22 18 29 20 50 20 186 0 172 -10 211 -59 236 -40 21 -99 20 -137 -3z"/>
<path d="M1839 5135 c-46 -25 -59 -79 -58 -233 0 -153 10 -195 52 -226 34 -25
101 -28 141 -6 50 26 56 53 56 239 l0 171 -28 31 c-24 27 -37 33 -83 36 -35 2
-63 -2 -80 -12z"/>
<path d="M2475 5141 c-11 -5 -29 -19 -40 -31 -18 -20 -20 -39 -23 -194 -3
-146 -1 -176 13 -203 33 -61 119 -79 182 -38 43 29 53 71 53 231 0 163 -11
204 -61 229 -30 16 -92 19 -124 6z"/>
<path d="M3089 5135 c-49 -26 -59 -68 -59 -232 0 -172 10 -206 73 -236 53 -27
107 -16 147 29 l30 35 0 164 c0 90 -4 175 -10 189 -21 56 -120 84 -181 51z"/>
<path d="M3724 5140 c-12 -4 -31 -21 -43 -36 -20 -25 -21 -38 -21 -198 0 -152
2 -175 20 -203 40 -66 155 -66 204 0 18 25 21 46 25 158 4 175 -3 215 -44 256
-28 28 -40 33 -76 32 -24 0 -54 -4 -65 -9z"/>
<path d="M4334 5131 c-49 -30 -56 -59 -52 -244 3 -159 4 -166 27 -191 52 -56
139 -56 192 0 23 25 24 31 27 194 3 139 0 174 -13 199 -30 59 -119 80 -181 42z"/>
<path d="M4955 5128 c-46 -36 -55 -73 -54 -225 0 -80 5 -152 12 -172 23 -67
104 -98 171 -66 60 29 66 51 66 246 l0 171 -34 34 c-30 30 -41 34 -84 34 -35
0 -57 -6 -77 -22z"/>
<path d="M5595 5141 c-11 -5 -29 -19 -40 -31 -18 -20 -20 -39 -23 -201 l-3
-180 34 -34 c43 -43 79 -52 130 -34 73 25 82 49 85 222 4 178 -4 219 -51 247
-33 21 -96 25 -132 11z"/>
<path d="M6209 5136 c-49 -28 -59 -69 -59 -233 0 -172 10 -206 73 -236 54 -27
107 -16 147 30 l31 35 -3 179 -3 179 -27 26 c-33 33 -117 43 -159 20z"/>
<path d="M6844 5140 c-12 -4 -31 -21 -43 -36 -20 -25 -21 -38 -21 -196 0 -192
6 -214 66 -243 67 -32 148 -1 171 66 15 42 17 280 3 331 -15 53 -61 88 -113
87 -23 0 -52 -4 -63 -9z"/>
<path d="M7454 5131 c-46 -28 -54 -65 -54 -235 0 -134 2 -155 20 -184 41 -67
131 -78 193 -22 l32 28 3 170 c3 140 0 176 -13 201 -30 59 -119 80 -181 42z"/>
<path d="M2198 3871 l-33 -29 -3 -216 -3 -216 -195 0 c-207 0 -240 -6 -279
-50 -15 -17 -20 -36 -20 -81 0 -51 4 -62 28 -86 l27 -28 218 -5 217 -5 5 -217
5 -218 27 -26 c33 -34 110 -44 155 -21 56 29 63 62 63 286 l0 201 205 0 c232
0 251 4 280 66 32 67 1 148 -66 171 -22 8 -104 12 -226 12 l-193 1 0 195 c0
218 -7 253 -59 279 -16 9 -50 16 -75 16 -36 0 -52 -6 -78 -29z"/>
<path d="M5983 3399 c-90 -26 -110 -171 -29 -220 30 -18 56 -19 578 -19 l548
0 32 29 c30 27 33 34 33 89 0 50 -4 65 -24 86 -14 14 -41 30 -60 36 -46 13
-1034 12 -1078 -1z"/>
<path d="M3222 2643 c-42 -20 -62 -59 -62 -117 0 -36 6 -52 29 -78 l29 -33
1182 -3 1182 -2 34 34 c29 29 34 41 34 80 0 55 -15 90 -49 113 -24 17 -96 18
-1186 20 -1057 3 -1163 1 -1193 -14z"/>
<path d="M3223 2145 c-40 -17 -63 -61 -63 -119 0 -36 6 -52 29 -78 l29 -33
557 -3 557 -2 34 34 c30 30 34 40 34 88 0 63 -18 94 -66 114 -49 21 -1064 20
-1111 -1z"/>
<path d="M4730 2149 c-39 -16 -59 -39 -71 -81 -13 -51 2 -99 43 -133 l31 -26
179 3 180 3 29 33 c53 59 33 169 -36 198 -40 17 -315 19 -355 3z"/>
</g>
</svg>
