<?xml version="1.0" standalone="no"?>
<!DOCTYPE svg PUBLIC "-//W3C//DTD SVG 20010904//EN"
 "http://www.w3.org/TR/2001/REC-SVG-20010904/DTD/svg10.dtd">
<svg version="1.0" xmlns="http://www.w3.org/2000/svg"
 width="512.000000pt" height="512.000000pt" viewBox="0 0 512.000000 512.000000"
 preserveAspectRatio="xMidYMid meet">

<g transform="translate(0.000000,512.000000) scale(0.100000,-0.100000)"
 stroke="none">
<path d="M2503 4740 c-21 -34 -123 -192 -227 -353 -514 -795 -720 -1141 -912
-1530 -148 -302 -236 -533 -291 -765 -24 -103 -27 -137 -27 -282 0 -195 17
-299 74 -473 176 -526 611 -909 1163 -1019 146 -29 411 -31 557 -4 684 126
1193 688 1255 1386 14 156 -41 437 -133 680 -181 479 -466 984 -1120 1985
-140 215 -261 400 -268 413 -8 12 -19 22 -24 22 -6 0 -27 -27 -47 -60z m-483
-1515 c-161 -494 -244 -966 -243 -1385 1 -530 124 -868 408 -1118 26 -23 45
-42 41 -42 -18 0 -212 106 -289 158 -358 239 -547 547 -547 890 0 389 235 989
617 1577 37 57 69 103 70 101 1 -1 -24 -83 -57 -181z"/>
</g>
</svg>
