<?xml version="1.0" standalone="no"?>
<!DOCTYPE svg PUBLIC "-//W3C//DTD SVG 20010904//EN"
 "http://www.w3.org/TR/2001/REC-SVG-20010904/DTD/svg10.dtd">
<svg version="1.0" xmlns="http://www.w3.org/2000/svg"
 width="540.000000pt" height="390.000000pt" viewBox="0 0 540.000000 390.000000"
 preserveAspectRatio="xMidYMid meet">

<g transform="translate(0.000000,390.000000) scale(0.100000,-0.100000)"
 stroke="none">
<path d="M1859 3676 c-2 -2 -54 -6 -115 -9 -61 -2 -116 -7 -121 -10 -6 -4 -11
-39 -12 -79 -2 -89 -19 -188 -37 -208 -15 -18 -135 -264 -186 -380 -36 -83
-37 -89 -48 -282 -14 -230 -8 -984 9 -1203 31 -384 71 -722 122 -1030 22 -134
36 -189 54 -220 33 -56 71 -93 103 -102 15 -5 108 -8 207 -7 99 0 511 0 915 0
1188 0 1111 -1 1151 16 44 19 76 60 130 163 45 87 44 80 2 250 -56 224 -56
222 -55 535 0 245 5 333 26 520 52 463 65 860 42 1275 -9 165 -21 338 -27 385
-8 70 -7 93 6 129 8 24 15 49 15 57 0 18 -56 101 -98 146 -38 40 -44 41 -127
13 -22 -8 -103 -32 -180 -54 -194 -56 -511 -149 -565 -165 -114 -35 -158 -38
-509 -32 -190 4 -352 6 -359 6 -7 0 -11 4 -7 9 3 5 -4 16 -16 24 -17 12 -21
28 -25 93 -10 150 -6 138 -50 145 -52 8 -240 20 -245 15z m225 -174 c7 -62 7
-63 -16 -60 -20 3 -23 8 -19 43 3 39 19 91 25 84 2 -2 6 -32 10 -67z m-422
-23 c2 -25 -1 -34 -14 -37 -15 -3 -18 3 -18 31 0 20 3 43 6 52 6 15 8 15 15 2
5 -8 10 -29 11 -48z m1891 -331 c30 -16 43 -34 66 -98 34 -94 111 -457 111
-526 0 -14 -34 -28 -116 -49 -91 -22 -98 -21 -119 24 -38 85 -83 107 -440 215
-49 15 -106 34 -125 43 -19 8 -88 35 -154 59 -65 24 -125 49 -132 55 -20 16
-43 65 -35 75 12 18 67 51 91 56 14 3 112 25 219 48 245 53 536 108 579 109
18 1 43 -4 55 -11z m-643 -532 c0 -3 -4 -8 -10 -11 -5 -3 -10 -1 -10 4 0 6 5
11 10 11 6 0 10 -2 10 -4z m-615 -86 c3 -5 2 -10 -4 -10 -5 0 -13 5 -16 10 -3
6 -2 10 4 10 5 0 13 -4 16 -10z m359 -21 c-11 -18 -103 -27 -179 -18 -152 17
-145 25 22 25 89 0 160 -3 157 -7z m395 -42 c-53 -41 -69 -57 -107 -105 -23
-29 -57 -83 -77 -120 -73 -140 -173 -232 -250 -232 l-29 0 51 53 c28 28 96
120 151 202 114 170 164 215 237 215 33 -1 37 -3 24 -13z m-1299 -6 c0 -6 -11
-16 -24 -23 -55 -30 -106 -69 -116 -88 -6 -11 -20 -20 -30 -20 -11 0 -20 -7
-20 -15 0 -8 -9 -15 -19 -15 -11 0 -23 -5 -27 -11 -4 -8 -10 -7 -18 1 -17 17
61 81 164 135 100 51 90 47 90 36z m1377 -64 c-58 -58 -157 -199 -157 -222 0
-3 9 -5 19 -5 11 0 22 -4 26 -10 10 -15 -33 -50 -62 -50 -24 -1 -36 -14 -83
-87 -122 -191 -202 -271 -287 -287 -18 -3 -33 -4 -33 -2 0 2 33 36 73 77 68
70 91 103 197 289 145 254 252 370 341 370 l38 0 -72 -73z m112 22 c-16 -10
-23 -4 -14 10 3 6 11 8 17 5 6 -4 5 -9 -3 -15z m-1720 -176 c-8 -9 -16 -10
-22 -4 -13 13 0 31 19 24 11 -4 12 -8 3 -20z m235 -38 c12 -8 31 -31 42 -50
10 -19 24 -35 30 -35 7 0 50 20 95 45 116 62 134 60 158 -17 7 -20 18 -38 25
-41 7 -3 42 14 78 37 90 58 249 108 248 79 0 -5 -40 -34 -88 -65 -48 -32 -109
-73 -135 -93 -98 -71 -167 -68 -194 9 -7 22 -15 41 -18 44 -2 2 -17 -5 -33
-17 -37 -26 -172 -91 -189 -91 -24 0 -53 39 -53 71 0 51 -47 119 -82 119 -21
0 -24 16 -5 24 20 9 96 -3 121 -19z m874 -1 c14 -10 22 -25 22 -45 0 -41 -73
-113 -132 -130 -65 -19 -143 -17 -168 6 -25 23 -25 30 0 55 19 19 22 19 50 5
45 -23 104 -19 137 9 23 20 26 28 17 43 -15 25 -68 28 -121 8 -24 -10 -46 -15
-49 -12 -8 7 56 53 91 65 46 16 127 14 153 -4z m-1088 -264 c26 -22 54 -40 61
-41 10 0 11 -2 2 -6 -16 -6 -123 58 -123 74 0 20 9 16 60 -27z m1567 -67 c7
-19 -25 -53 -52 -53 -19 0 -21 5 -19 43 1 23 2 43 3 44 4 7 64 -22 68 -34z
m-102 -3 c9 -15 -14 -40 -35 -40 -12 0 -18 8 -18 28 0 15 2 30 5 35 5 8 39 -8
48 -23z m-85 -10 c0 -5 -7 -10 -15 -10 -8 0 -15 5 -15 10 0 6 7 10 15 10 8 0
15 -4 15 -10z m-660 -229 c0 -5 -9 -11 -20 -14 -17 -4 -20 -14 -20 -71 0 -37
-4 -66 -10 -66 -14 0 -23 46 -17 85 5 33 -4 49 -27 50 -5 0 -11 6 -13 13 -4 9
11 12 51 12 31 0 56 -4 56 -9z m117 -3 c-2 -7 -17 -13 -33 -13 -22 0 -30 -5
-32 -22 -3 -19 1 -23 23 -23 28 0 31 -25 4 -25 -50 -1 -43 -45 7 -45 19 0 34
-4 34 -10 0 -5 -22 -10 -50 -10 l-50 0 0 73 c0 41 3 77 7 80 3 4 26 7 51 7 30
0 42 -4 39 -12z m123 2 c0 -5 -13 -10 -30 -10 -33 0 -44 -22 -38 -81 3 -30 7
-34 36 -37 41 -4 42 -22 0 -22 -47 0 -68 24 -68 81 0 30 6 53 16 63 17 18 84
22 84 6z m52 -22 c3 -29 7 -33 35 -36 29 -3 32 -1 35 29 2 18 9 34 16 37 9 3
12 -17 12 -78 0 -61 -3 -81 -12 -78 -7 3 -15 18 -18 34 -5 28 -11 31 -60 25
-5 0 -10 -14 -10 -31 0 -16 -4 -30 -10 -30 -6 0 -10 33 -10 80 0 78 16 112 22
48z m-278 -209 c-3 -5 -10 -7 -15 -3 -5 3 -7 10 -3 15 3 5 10 7 15 3 5 -3 7
-10 3 -15z m116 14 c0 -5 -5 -15 -10 -23 -8 -12 -10 -11 -10 8 0 12 5 22 10
22 6 0 10 -3 10 -7z m1264 -12 c4 -5 -63 -45 -146 -88 -309 -160 -596 -350
-1005 -666 -7 -5 -13 -7 -13 -4 0 3 37 37 83 75 254 212 608 447 937 620 154
82 137 75 144 63z m-1744 -197 c0 -8 -5 -12 -10 -9 -6 4 -8 11 -5 16 9 14 15
11 15 -7z m315 7 c3 -5 1 -12 -5 -16 -5 -3 -10 1 -10 9 0 18 6 21 15 7z m1105
-316 c0 -8 -6 -15 -12 -15 -7 0 -24 -9 -38 -20 -14 -11 -33 -20 -42 -20 -10 0
-18 -4 -18 -9 0 -5 -13 -14 -30 -21 -16 -7 -30 -16 -30 -21 0 -5 -6 -9 -14 -9
-8 0 -43 -18 -77 -40 -35 -22 -74 -44 -85 -49 -67 -30 -511 -323 -539 -357 -5
-6 -23 -15 -39 -18 -33 -8 -118 3 -114 14 2 4 47 55 102 113 68 73 104 104
115 100 10 -3 12 -2 4 4 -15 11 0 30 53 66 22 15 64 47 91 71 55 46 170 106
243 126 25 7 56 18 70 25 14 7 66 21 115 30 50 9 110 23 135 30 63 19 110 19
110 0z m227 -273 c32 -7 39 -13 44 -37 4 -23 0 -36 -20 -57 -13 -15 -22 -30
-19 -33 3 -3 24 -3 47 1 38 6 41 9 41 38 0 18 7 41 15 52 13 17 14 15 15 -33
0 -45 -4 -55 -25 -69 -30 -19 -120 -11 -144 14 -15 14 -14 15 2 9 29 -11 49 3
43 29 -5 20 -3 24 16 24 21 0 21 1 5 17 -16 16 -19 15 -50 -15 -37 -36 -53
-41 -37 -13 5 11 10 22 10 24 0 3 -59 4 -132 3 -91 -2 -133 -6 -136 -14 -5
-17 -22 -15 -22 2 0 9 17 17 52 21 29 4 75 18 103 31 54 25 110 34 137 22 9
-5 34 -12 55 -16z m-1077 9 c0 -5 -12 -17 -27 -26 l-28 -18 24 27 c26 28 31
31 31 17z m-790 -141 c0 -5 -5 -10 -12 -10 -12 0 21 -29 35 -30 4 0 7 9 7 20
0 11 5 20 11 20 7 0 9 -9 6 -21 -3 -12 2 -28 12 -38 17 -17 16 -18 -38 -18
-40 0 -50 2 -33 8 27 10 29 29 2 29 -15 0 -20 7 -20 25 0 16 6 25 15 25 8 0
15 -4 15 -10z m130 -46 c0 -14 -4 -23 -10 -19 -5 3 -10 15 -10 26 0 10 5 19
10 19 6 0 10 -12 10 -26z m70 22 c0 -3 -4 -8 -10 -11 -5 -3 -10 -1 -10 4 0 6
5 11 10 11 6 0 10 -2 10 -4z m1187 -39 c-5 -16 -106 -30 -122 -17 -7 6 -23 6
-45 0 -35 -10 -58 -1 -46 18 9 15 218 14 213 -1z m-107 -37 c3 -1 32 -2 65 -1
33 1 67 -3 75 -8 32 -21 2 -25 -173 -22 -58 1 -78 4 -75 14 6 17 79 28 108 17z"/>
<path d="M3374 605 c-17 -13 -12 -14 56 -11 91 5 109 26 23 26 -37 0 -67 -6
-79 -15z"/>
</g>
</svg>
