<?xml version="1.0" standalone="no"?>
<!DOCTYPE svg PUBLIC "-//W3C//DTD SVG 20010904//EN"
 "http://www.w3.org/TR/2001/REC-SVG-20010904/DTD/svg10.dtd">
<svg version="1.0" xmlns="http://www.w3.org/2000/svg"
 width="256.000000pt" height="256.000000pt" viewBox="0 0 256.000000 256.000000"
 preserveAspectRatio="xMidYMid meet">

<g transform="translate(0.000000,256.000000) scale(0.100000,-0.100000)"
 stroke="none">
<path d="M1200 2504 c-199 -23 -328 -58 -465 -127 -249 -125 -460 -339 -569
-580 -153 -334 -153 -714 -1 -1036 162 -341 453 -584 813 -678 134 -35 355
-43 502 -18 613 102 1053 640 1027 1255 -9 193 -47 340 -131 508 -203 403
-590 654 -1041 675 -55 3 -116 3 -135 1z m220 -194 c30 -6 55 -12 57 -14 3 -2
-46 -120 -108 -261 -108 -246 -113 -256 -138 -253 l-26 3 -3 259 c-2 201 1
261 10 268 18 11 145 10 208 -2z m213 -54 c122 -46 307 -154 307 -179 0 -20
-161 -228 -240 -311 -123 -129 -199 -168 -254 -133 -54 36 -58 140 -11 315 29
108 114 332 126 332 5 0 37 -11 72 -24z m-652 -121 c84 -189 122 -316 123
-416 1 -103 -14 -129 -72 -129 -59 0 -122 39 -226 140 -98 95 -246 268 -246
287 0 6 37 41 83 78 79 66 247 159 275 153 8 -2 36 -52 63 -113z m-313 -399
c89 -123 162 -231 162 -240 0 -8 -8 -20 -18 -25 -15 -8 -62 15 -237 115 -121
68 -223 128 -228 133 -15 15 128 241 152 241 4 0 80 -101 169 -224z m1511 55
c52 -85 86 -172 72 -180 -17 -11 -537 -65 -555 -58 -19 8 -21 40 -3 55 17 14
430 251 438 252 4 0 26 -31 48 -69z m-853 -246 c21 -33 6 -71 -31 -81 -34 -8
-53 0 -67 30 -16 36 11 76 52 76 21 0 35 -8 46 -25z m974 -52 c15 -64 24 -298
13 -348 l-9 -40 -75 3 c-254 11 -504 81 -550 155 -26 43 -18 74 32 119 63 58
246 115 474 147 106 15 102 16 115 -36z m-1792 -59 c210 -30 351 -86 378 -150
19 -45 5 -76 -52 -120 -68 -51 -298 -114 -506 -139 -64 -7 -60 -13 -79 100
-12 69 -7 304 6 325 8 12 89 7 253 -16z m566 -60 c19 -18 21 -65 4 -82 -30
-30 -98 -1 -98 41 0 48 61 74 94 41z m488 -1 c36 -33 10 -93 -42 -93 -33 0
-50 17 -50 51 0 52 54 77 92 42z m-243 -18 c16 -8 34 -28 41 -45 28 -67 -44
-138 -110 -110 -74 31 -74 136 0 163 25 9 40 8 69 -8z m146 -270 c14 -13 25
-30 25 -37 0 -26 -31 -58 -56 -58 -29 0 -64 32 -64 60 0 24 34 60 55 60 9 0
27 -11 40 -25z m-295 0 c7 -8 13 -26 13 -40 0 -14 -6 -32 -13 -40 -28 -33
-100 -6 -100 38 0 47 71 77 100 42z m820 -113 c102 -57 195 -111 208 -119 l23
-14 -36 -67 c-40 -73 -111 -172 -123 -172 -13 0 -332 446 -332 463 0 24 31 37
55 25 11 -6 103 -58 205 -116z m-1113 22 c3 -9 2 -24 -4 -32 -5 -9 -108 -73
-229 -143 l-219 -128 -32 51 c-39 61 -97 197 -88 206 7 7 448 59 518 61 36 1
49 -3 54 -15z m734 -41 c64 -32 220 -184 327 -318 l72 -89 -33 -34 c-75 -78
-325 -220 -346 -196 -16 18 -113 248 -143 338 -34 105 -47 229 -29 274 24 56
72 64 152 25z m-501 -18 c31 -16 50 -62 50 -121 0 -83 -54 -282 -131 -477 -22
-57 -23 -59 -53 -53 -79 15 -356 175 -356 205 0 10 94 143 153 216 119 146
229 237 300 244 4 1 21 -6 37 -14z m244 -171 c3 -9 6 -131 6 -271 l0 -256
-112 6 c-62 4 -127 10 -145 14 l-32 8 93 210 c51 116 102 231 114 258 17 37
26 47 45 47 14 0 28 -7 31 -16z"/>
</g>
</svg>
