<?xml version="1.0" standalone="no"?>
<!DOCTYPE svg PUBLIC "-//W3C//DTD SVG 20010904//EN"
 "http://www.w3.org/TR/2001/REC-SVG-20010904/DTD/svg10.dtd">
<svg version="1.0" xmlns="http://www.w3.org/2000/svg"
 width="512.000000pt" height="512.000000pt" viewBox="0 0 512.000000 512.000000"
 preserveAspectRatio="xMidYMid meet">

<g transform="translate(0.000000,512.000000) scale(0.100000,-0.100000)"
 stroke="none">
<path d="M2315 5109 c-884 -91 -1661 -631 -2049 -1423 -93 -188 -137 -308
-186 -500 -61 -240 -74 -355 -74 -626 0 -271 13 -386 74 -626 49 -192 93 -312
185 -500 248 -505 663 -920 1170 -1169 248 -122 496 -199 770 -241 169 -26
541 -26 710 0 562 85 1054 333 1450 731 439 440 689 974 746 1595 14 158 7
413 -16 570 -106 718 -510 1358 -1115 1765 -322 216 -665 349 -1060 410 -126
19 -477 28 -605 14z m585 -184 c950 -139 1741 -852 1975 -1780 54 -216 69
-342 69 -585 0 -243 -15 -369 -69 -585 -212 -840 -890 -1518 -1730 -1730 -216
-54 -342 -69 -585 -69 -291 0 -500 33 -758 120 -853 289 -1473 1031 -1608
1929 -25 168 -25 504 0 670 79 518 309 976 671 1341 412 415 924 654 1515 708
94 8 410 -3 520 -19z"/>
<path d="M2415 4603 c-687 -57 -1281 -430 -1628 -1023 -93 -159 -160 -323
-212 -519 -48 -180 -59 -277 -59 -501 0 -221 20 -366 79 -570 198 -689 753
-1226 1461 -1414 183 -49 280 -60 504 -60 158 0 219 4 325 23 440 78 814 270
1120 576 306 306 499 681 576 1120 32 181 32 463 1 645 -126 742 -620 1340
-1322 1603 -258 96 -580 142 -845 120z m358 -182 c4 -4 -22 -52 -58 -107 -35
-54 -65 -105 -65 -113 0 -7 38 -132 86 -277 94 -291 88 -281 185 -310 30 -9
84 -31 121 -50 39 -20 83 -34 103 -34 46 0 488 219 509 252 7 13 26 71 42 131
16 59 31 107 35 107 25 0 317 -296 304 -309 -2 -2 -50 -12 -107 -22 -57 -10
-113 -21 -126 -24 -17 -4 -48 -57 -147 -255 -69 -137 -125 -256 -125 -263 0
-7 20 -57 44 -112 24 -55 49 -119 56 -142 7 -24 21 -49 30 -58 22 -20 497
-185 533 -185 17 0 63 24 125 65 l97 65 8 -27 c11 -38 14 -305 4 -375 l-8 -57
-106 70 c-60 40 -116 69 -130 69 -14 0 -138 -36 -274 -80 -274 -89 -267 -84
-295 -181 -9 -30 -31 -84 -50 -121 -20 -39 -34 -83 -34 -103 0 -25 33 -101
114 -263 63 -125 121 -234 129 -240 8 -7 62 -26 119 -42 142 -41 133 -35 108
-69 -47 -67 -284 -291 -295 -279 -2 2 -14 53 -25 114 -12 60 -23 117 -26 127
-6 18 -489 267 -518 267 -7 0 -46 -15 -87 -34 -41 -18 -103 -44 -139 -56 -36
-13 -73 -30 -82 -39 -17 -16 -178 -492 -178 -526 0 -10 31 -67 69 -126 l69
-107 -37 -6 c-47 -8 -358 -6 -392 3 l-26 6 63 110 c35 60 64 121 64 135 0 29
-163 504 -180 524 -6 8 -52 28 -103 46 -50 17 -112 43 -136 56 -24 13 -56 24
-72 24 -17 0 -128 -50 -268 -119 -271 -136 -250 -115 -280 -279 -10 -57 -20
-105 -23 -107 -8 -9 -166 137 -240 222 -62 71 -74 89 -60 94 9 3 65 14 124 24
81 14 112 23 126 39 21 24 242 489 242 510 0 7 -15 46 -34 87 -18 41 -44 103
-57 139 -12 36 -29 72 -36 82 -15 16 -495 178 -529 178 -11 0 -66 -31 -124
-69 l-105 -68 -8 31 c-13 46 -12 395 0 407 8 8 41 -10 109 -55 55 -36 108 -66
120 -66 26 0 511 166 541 185 14 9 32 46 52 107 17 51 42 113 56 137 14 23 25
56 25 72 0 17 -49 127 -119 268 -136 271 -115 250 -279 280 -57 10 -105 20
-107 23 -8 8 136 165 222 240 101 90 91 95 118 -64 14 -81 23 -112 39 -126 23
-21 480 -242 499 -242 7 0 57 20 112 44 55 24 119 49 142 56 24 7 49 21 58 30
19 20 185 496 185 530 0 13 -27 65 -59 115 -33 49 -61 97 -63 105 -2 12 12 16
62 21 81 9 352 1 363 -10z m-557 -143 c38 -62 68 -114 68 -117 -1 -4 -29 -93
-63 -198 -58 -181 -63 -193 -89 -199 -15 -4 -58 -21 -96 -37 l-69 -31 -182 94
-182 95 -23 123 c-12 67 -20 128 -17 135 5 14 208 122 297 158 60 24 258 88
276 89 6 0 42 -50 80 -112z m923 66 c87 -28 348 -147 399 -182 10 -7 7 -36
-14 -145 l-26 -136 -183 -93 -182 -92 -69 31 c-38 18 -81 35 -95 38 -24 6 -31
22 -88 200 -35 107 -61 198 -59 203 1 4 34 57 72 116 l69 108 35 -7 c20 -4 83
-22 141 -41z m-1922 -834 c7 0 54 -82 104 -182 87 -173 91 -184 79 -213 -7
-16 -24 -60 -37 -97 l-25 -67 -188 -60 c-103 -34 -193 -61 -199 -61 -5 0 -58
30 -116 68 l-106 67 6 34 c20 110 114 342 200 497 l34 61 118 -23 c65 -13 124
-24 130 -24z m3014 -106 c63 -124 115 -260 154 -401 5 -19 -9 -32 -107 -98
-62 -41 -120 -75 -128 -75 -8 0 -98 28 -201 62 l-187 62 -12 40 c-7 23 -23 65
-37 95 l-26 54 94 182 94 182 130 26 c71 14 135 24 140 23 6 -1 44 -69 86
-152z m-3074 -1183 c181 -58 193 -63 199 -89 4 -15 21 -58 37 -96 l31 -69 -94
-182 -95 -182 -123 -23 c-67 -12 -129 -20 -136 -17 -23 9 -161 296 -200 418
-55 171 -60 155 69 237 61 38 112 68 115 67 3 -1 92 -30 197 -64z m3121 -6
c98 -66 112 -79 107 -98 -36 -132 -89 -272 -145 -385 -38 -75 -74 -145 -82
-154 -12 -16 -22 -15 -148 9 l-135 26 -94 182 -94 182 26 54 c14 30 30 72 37
95 l12 40 181 61 c100 34 191 62 202 62 11 1 71 -33 133 -74z m-958 -886 l178
-91 26 -136 c21 -108 24 -137 14 -144 -7 -5 -76 -40 -153 -78 -129 -65 -302
-129 -387 -145 l-35 -7 -69 108 c-38 59 -71 112 -72 116 -2 5 24 96 58 202
l63 194 41 12 c23 7 61 23 86 36 25 13 51 23 59 24 7 0 93 -41 191 -91z
m-1292 62 c20 -10 60 -26 89 -35 l51 -17 61 -189 c34 -103 61 -193 61 -199 0
-5 -30 -58 -67 -116 l-68 -106 -34 6 c-82 15 -256 80 -386 144 -77 38 -147 75
-156 83 -14 12 -13 25 10 141 l26 129 175 88 c96 49 181 89 188 90 7 0 29 -8
50 -19z"/>
<path d="M2453 3479 c-79 -25 -161 -97 -200 -177 -24 -50 -28 -69 -28 -147 0
-84 2 -95 34 -153 63 -116 156 -175 286 -180 142 -6 247 54 316 180 32 58 34
69 34 153 0 78 -4 97 -28 147 -40 82 -120 152 -204 178 -80 25 -130 25 -210
-1z m158 -160 c100 -34 147 -146 99 -239 -31 -61 -73 -85 -150 -85 -52 0 -72
5 -98 23 -87 63 -95 191 -16 263 49 45 105 58 165 38z"/>
<path d="M1863 2886 c-104 -34 -192 -122 -223 -223 -25 -82 -25 -124 0 -206
26 -84 96 -164 178 -204 50 -24 68 -28 147 -28 107 0 163 23 235 95 74 73 95
127 95 240 0 81 -4 103 -25 145 -31 64 -102 134 -165 164 -61 30 -179 38 -242
17z m177 -176 c61 -31 85 -73 85 -150 0 -77 -24 -119 -85 -150 -96 -49 -211 2
-240 106 -39 140 110 260 240 194z"/>
<path d="M3058 2887 c-108 -41 -191 -122 -223 -217 -24 -71 -18 -189 13 -251
34 -70 84 -122 154 -160 58 -32 69 -34 153 -34 78 0 97 4 147 28 82 40 152
120 178 204 11 36 20 82 20 103 0 21 -9 67 -20 103 -26 83 -96 164 -177 203
-66 33 -185 43 -245 21z m165 -171 c73 -30 120 -124 98 -196 -32 -109 -143
-160 -241 -110 -61 31 -85 73 -85 150 0 52 5 72 23 98 46 63 133 88 205 58z"/>
<path d="M2433 2279 c-65 -25 -142 -98 -179 -169 -25 -48 -29 -66 -29 -145 0
-78 4 -97 28 -147 40 -82 120 -152 204 -178 82 -25 124 -25 206 0 84 26 164
96 204 178 24 50 28 69 28 147 0 84 -2 95 -34 153 -66 121 -169 182 -304 181
-47 0 -90 -7 -124 -20z m225 -178 c89 -63 95 -195 13 -264 -69 -58 -153 -58
-222 0 -96 81 -68 237 51 286 33 14 126 1 158 -22z"/>
</g>
</svg>
