<?xml version="1.0" standalone="no"?>
<!DOCTYPE svg PUBLIC "-//W3C//DTD SVG 20010904//EN"
 "http://www.w3.org/TR/2001/REC-SVG-20010904/DTD/svg10.dtd">
<svg version="1.0" xmlns="http://www.w3.org/2000/svg"
 width="200.000000pt" height="200.000000pt" viewBox="0 0 200.000000 200.000000"
 preserveAspectRatio="xMidYMid meet">

<g transform="translate(0.000000,200.000000) scale(0.100000,-0.100000)"
 stroke="none">
<path d="M1792 1917 c-18 -12 -43 -40 -55 -61 -15 -28 -32 -42 -53 -48 -37 -9
-76 -48 -56 -56 22 -7 83 -64 112 -104 25 -35 28 -36 48 -22 12 8 25 29 30 46
6 23 16 34 37 41 38 12 80 51 95 87 10 23 9 35 -4 62 -34 68 -100 92 -154 55z"/>
<path d="M1476 1729 c-39 -31 -33 -51 29 -93 65 -45 117 -100 144 -154 27 -54
45 -58 74 -19 13 18 27 40 30 49 19 53 -65 167 -155 212 -63 31 -87 32 -122 5z"/>
<path d="M1381 1623 c0 -10 27 -38 60 -63 53 -40 149 -149 149 -170 0 -13 33
-21 43 -11 36 36 -166 261 -234 261 -12 0 -19 -7 -18 -17z"/>
<path d="M1316 1573 c-13 -13 -5 -42 13 -48 30 -9 124 -104 166 -167 23 -36
45 -58 56 -58 11 0 19 6 19 13 0 22 -76 134 -124 181 -45 46 -119 90 -130 79z"/>
<path d="M1230 1492 c0 -13 -8 -18 -27 -17 -23 0 -28 -5 -33 -30 -4 -24 -12
-32 -39 -40 -21 -6 -74 -46 -134 -102 -82 -76 -103 -91 -118 -83 -24 13 -76
13 -101 -1 -14 -8 -23 -8 -31 0 -23 23 -58 11 -107 -35 -28 -26 -50 -52 -50
-58 0 -6 9 -22 19 -35 18 -23 18 -24 -18 -56 -25 -23 -40 -31 -51 -25 -11 6
-43 -17 -120 -90 l-105 -98 33 -41 c54 -68 24 -99 -34 -36 -17 19 -36 35 -42
35 -20 0 -40 -30 -35 -51 7 -25 219 -242 351 -358 75 -66 98 -82 120 -79 39 4
40 38 3 80 -23 27 -27 38 -19 46 9 9 21 3 49 -24 l38 -37 58 51 c32 28 76 69
98 91 35 36 38 44 27 61 -16 26 -16 28 10 32 13 2 29 15 36 31 l13 27 44 -26
44 -26 56 53 55 52 -20 33 c-20 31 -20 34 -4 68 15 30 16 42 6 73 l-12 38 94
95 c52 52 101 109 110 127 9 19 25 33 38 35 17 2 24 11 26 31 2 19 9 27 23 27
16 0 19 4 14 23 -18 60 -125 180 -207 233 -45 29 -58 30 -58 6z m-418 -372
c31 -28 71 -69 89 -91 l32 -41 -40 -40 -40 -40 -59 53 c-55 50 -124 125 -124
135 0 7 74 74 81 74 3 0 30 -23 61 -50z m-255 -348 l-98 -97 -19 25 -19 25 97
92 c96 90 97 91 117 72 20 -19 19 -20 -78 -117z"/>
<path d="M240 631 c0 -9 312 -300 337 -314 33 -19 25 7 -12 40 -22 20 -99 92
-172 160 -121 113 -153 137 -153 114z"/>
<path d="M210 590 c0 -13 327 -314 346 -318 28 -7 13 14 -48 68 -35 30 -111
101 -169 158 -99 95 -129 117 -129 92z"/>
<path d="M176 561 c-8 -12 327 -331 348 -331 22 0 -7 35 -87 107 -51 46 -129
117 -174 158 -45 42 -84 71 -87 66z"/>
<path d="M146 521 c-3 -5 50 -63 119 -129 154 -148 222 -205 229 -194 3 5 -73
82 -169 171 -95 88 -176 157 -179 152z"/>
<path d="M110 477 c0 -8 70 -79 156 -158 173 -159 190 -173 198 -160 3 4 -54
63 -127 129 -72 66 -150 139 -172 161 -41 43 -55 50 -55 28z"/>
<path d="M87 432 c-15 -17 -14 -21 15 -58 17 -21 71 -80 120 -130 l90 -91 -27
-22 c-43 -33 -105 -29 -150 10 -29 26 -38 29 -50 19 -14 -12 -12 -17 12 -42
15 -17 40 -36 55 -44 59 -31 157 -8 222 51 l29 26 -99 94 c-55 51 -119 118
-143 149 -24 31 -47 56 -51 56 -4 0 -14 -8 -23 -18z"/>
<path d="M113 293 c-4 -9 1 -30 11 -46 12 -21 14 -33 6 -41 -17 -17 -12 -22
23 -23 17 -1 47 -4 66 -8 22 -5 32 -4 30 3 -5 12 -118 132 -125 132 -3 0 -8
-8 -11 -17z"/>
</g>
</svg>
