<svg id="steering-wheel" xmlns="http://www.w3.org/2000/svg" width="60" height="60" viewBox="0 0 60 60">
  <circle id="Ellipse_3580" data-name="Ellipse 3580" cx="1.758" cy="1.758" r="1.758" transform="translate(28.242 30)" />
  <path id="Path_106685" data-name="Path 106685" d="M30,0A30,30,0,1,0,60,30,30.065,30.065,0,0,0,30,0Zm0,7.148A22.888,22.888,0,0,1,52.581,26.484h-6.1A13.819,13.819,0,0,1,36.41,22.229a8.8,8.8,0,0,0-12.82,0,13.819,13.819,0,0,1-10.075,4.255h-6.1A22.888,22.888,0,0,1,30,7.148Zm0,29.883a5.273,5.273,0,1,1,5.273-5.273A5.279,5.279,0,0,1,30,37.031Zm-21.279,1.3a13.879,13.879,0,0,1,5.459-1.3A10.556,10.556,0,0,1,24.607,49.159h0a10.511,10.511,0,0,1-.833,2.829A22.957,22.957,0,0,1,8.721,38.332Zm27.51,13.656a10.484,10.484,0,0,1-.834-2.829h0A10.559,10.559,0,0,1,48.325,37.331a25.68,25.68,0,0,1,2.954,1A22.957,22.957,0,0,1,36.231,51.988Z" />
</svg>
