<svg id="tyre" xmlns="http://www.w3.org/2000/svg" width="24" height="24" viewBox="0 0 24 24">
  <path id="Path_96607" data-name="Path 96607" d="M2,14a12,12,0,1,1,23.268,4.12A2.786,2.786,0,0,1,26,20v3.2A2.8,2.8,0,0,1,23.2,26H4.8A2.8,2.8,0,0,1,2,23.2V20a2.786,2.786,0,0,1,.732-1.88A11.891,11.891,0,0,1,2,14ZM4.8,25.2H23.2a2,2,0,0,0,2-1.992L23.732,24.32a.4.4,0,0,1-.484,0L21.384,22.9,19.52,24.32a.4.4,0,0,1-.484,0L17.168,22.9,15.3,24.32a.4.4,0,0,1-.484,0L12.952,22.9,11.084,24.32a.406.406,0,0,1-.484,0L8.732,22.9,6.864,24.32a.4.4,0,0,1-.484,0L4.512,22.9,3,24.048A2,2,0,0,0,4.8,25.2Zm-2-2L4.268,22.08a.4.4,0,0,1,.484,0L6.624,23.5l1.868-1.42a.4.4,0,0,1,.484,0L10.84,23.5l1.868-1.416a.4.4,0,0,1,.484,0L15.06,23.5l1.868-1.416a.4.4,0,0,1,.484,0L19.276,23.5l1.868-1.416a.4.4,0,0,1,.484,0L23.492,23.5,25.2,22.2V20.4L23.732,21.52a.4.4,0,0,1-.484,0L21.384,20.1,19.52,21.52a.4.4,0,0,1-.484,0L17.168,20.1,15.3,21.52a.4.4,0,0,1-.484,0L12.952,20.1,11.084,21.52a.406.406,0,0,1-.484,0L8.732,20.1,6.864,21.52a.4.4,0,0,1-.484,0L4.512,20.1,2.8,21.4Zm0-2.8L4.268,19.28a.4.4,0,0,1,.484,0L6.624,20.7l1.868-1.42a.4.4,0,0,1,.484,0L10.84,20.7l1.868-1.416a.4.4,0,0,1,.484,0L15.06,20.7l1.868-1.416a.4.4,0,0,1,.484,0L19.276,20.7l1.868-1.416a.4.4,0,0,1,.484,0L23.492,20.7l1.624-1.232A2,2,0,0,0,23.2,18H4.8a2,2,0,0,0-2,2Zm14.32-7.28H17.1a.4.4,0,0,1-.368-.248.4.4,0,0,1,.1-.452l2.38-2.124a6.494,6.494,0,0,0-1.5-1.5l-2.124,2.376a.416.416,0,0,1-.3.132.406.406,0,0,1-.4-.424l.176-3.188c-.1-.016-.2-.036-.308-.048a6.306,6.306,0,0,0-1.5,0c-.1.012-.208.032-.308.048l.176,3.188a.406.406,0,0,1-.4.424.416.416,0,0,1-.3-.132L10.292,8.8a6.494,6.494,0,0,0-1.5,1.5l2.38,2.124a.4.4,0,0,1,.1.452.4.4,0,0,1-.368.248H10.88L7.7,12.94A6.181,6.181,0,0,0,7.6,14a6.252,6.252,0,0,0,.092,1.06l3.188-.176a.4.4,0,0,1,.292.7L9.364,17.2h2.72l.336-.372a.4.4,0,0,1,.7.292l0,.08h1.776l0-.08a.4.4,0,0,1,.7-.292l.336.372h2.72l-1.808-1.616a.4.4,0,0,1-.1-.452.406.406,0,0,1,.392-.248l3.188.176A6.252,6.252,0,0,0,20.4,14a6.181,6.181,0,0,0-.1-1.06Zm3-.968a6.643,6.643,0,0,0-.312-.828c-.052-.116-.112-.228-.172-.34l-1.424,1.272Zm-3.1-3.784a6.477,6.477,0,0,0-1.168-.484l-.1,1.908ZM12.252,9.788l-.1-1.908a6.477,6.477,0,0,0-1.168.484ZM8.364,10.98c-.06.112-.12.224-.172.34a6.643,6.643,0,0,0-.312.828l1.908.1Zm-.488,4.872a6.216,6.216,0,0,0,.488,1.168l1.424-1.272Zm11.76,1.168a6.216,6.216,0,0,0,.488-1.168l-1.912-.1Zm-16.248.564A2.816,2.816,0,0,1,4.8,17.2H7.556A7.2,7.2,0,0,1,6.8,14a6.983,6.983,0,0,1,.14-1.4,6.88,6.88,0,0,1,.524-1.616,7.248,7.248,0,0,1,5.688-4.132,7.076,7.076,0,0,1,1.7,0,7.248,7.248,0,0,1,5.688,4.132A6.909,6.909,0,0,1,21.06,12.6,7.052,7.052,0,0,1,21.2,14a7.2,7.2,0,0,1-.756,3.2H23.2a2.816,2.816,0,0,1,1.412.384,11.2,11.2,0,1,0-21.224,0Z" transform="translate(-2 -2)" />
  <path id="Path_96608" data-name="Path 96608" d="M32,37a5,5,0,1,1,5-5A5,5,0,0,1,32,37Zm0-8a3,3,0,1,0,3,3A3,3,0,0,0,32,29Z" transform="translate(-20 -20)" />
</svg>
